<?xml version="1.0" standalone="no"?>
<!DOCTYPE svg PUBLIC "-//W3C//DTD SVG 20010904//EN"
 "http://www.w3.org/TR/2001/REC-SVG-20010904/DTD/svg10.dtd">
<svg version="1.0" xmlns="http://www.w3.org/2000/svg"
 width="256.000000pt" height="256.000000pt" viewBox="0 0 256.000000 256.000000"
 preserveAspectRatio="xMidYMid meet">
<metadata>
Created by potrace 1.14, written by Peter Selinger 2001-2017
</metadata>
<g transform="translate(0.000000,256.000000) scale(0.100000,-0.100000)"
fill="#000000" stroke="none">
<path d="M1035 2165 c-155 -22 -311 -76 -399 -138 -15 -11 -41 -40 -57 -65
l-29 -46 0 -628 c0 -605 1 -630 20 -667 31 -62 123 -124 245 -166 236 -80 647
-84 887 -9 149 47 225 93 269 162 l29 46 0 628 c0 605 -1 630 -20 667 -45 90
-200 168 -410 207 -119 22 -408 27 -535 9z m378 -116 c202 -17 379 -73 442
-139 40 -42 28 -74 -45 -118 -188 -112 -598 -145 -888 -71 -141 36 -252 102
-252 150 0 9 18 33 41 52 69 60 237 111 415 126 130 12 157 12 287 0z m-701
-388 c86 -51 283 -95 478 -107 204 -12 480 29 625 95 l65 30 0 -195 c0 -197
-4 -224 -39 -252 -124 -99 -451 -153 -738 -121 -194 21 -353 76 -407 139 l-26
32 0 199 c0 109 2 199 4 199 3 0 20 -9 38 -19z m39 -600 c271 -122 804 -120
1063 5 28 13 54 24 58 24 5 0 8 -93 6 -206 l-3 -206 -34 -29 c-43 -36 -142
-75 -251 -101 -126 -29 -390 -36 -539 -14 -186 28 -340 88 -370 145 -13 24
-15 411 -2 411 4 0 37 -13 72 -29z"/>
<path d="M816 1427 c-40 -40 -31 -85 21 -105 40 -16 153 -42 186 -42 33 0 67
32 67 63 0 43 -23 59 -111 78 -46 10 -96 22 -111 25 -20 5 -33 0 -52 -19z"/>
<path d="M810 838 c-46 -49 -14 -91 90 -118 103 -27 155 -26 174 2 41 59 10
93 -110 119 -112 24 -129 24 -154 -3z"/>
</g>
</svg>
